<?xml version="1.0" encoding="iso-8859-1"?>
<!-- Generator: Adobe Illustrator 19.0.1, SVG Export Plug-In . SVG Version: 6.00 Build 0)  -->
<svg version="1.1" xmlns="http://www.w3.org/2000/svg" xmlns:xlink="http://www.w3.org/1999/xlink" x="0px" y="0px"
	 viewBox="0 0 128 128" style="enable-background:new 0 0 128 128;" xml:space="preserve">
<g id="_x34_">
	<polygon style="fill:#E1DEFD;" points="120.19,27.582 88.663,113.382 87.311,117.088 85.927,120.858 85.72,122.194 84.13,123.339 
		84.13,32.258 19.533,32.258 19.772,30.668 20.01,29.077 22.206,14.65 38.844,17.179 40.466,17.418 41.023,15.907 46.654,0.573 	"/>
	<path style="fill:#675BF5;" d="M45.699,0l-6.299,17.131l-18.531-2.815l-2.465,16.241H5.774V128h81.537v-4.183l0.159-1.05
		l34.756-94.66L45.699,0z M84.13,124.819H8.955V33.738H84.13V124.819z M21.633,30.556l1.909-12.614l14.745,2.243l1.623,0.239
		l1.591,0.255l56.945,8.653l-11.135,73.266V30.556H21.633z M102.072,26.659l-59.459-9.035l4.979-13.536L118.154,30l-28.298,77.035
		L102.072,26.659z"/>
</g>
<g id="Layer_1">
</g>
</svg>
