<?xml version="1.0" encoding="iso-8859-1"?>
<!-- Generator: Adobe Illustrator 19.0.0, SVG Export Plug-In . SVG Version: 6.00 Build 0)  -->
<svg version="1.1" id="Layer_1" xmlns="http://www.w3.org/2000/svg" xmlns:xlink="http://www.w3.org/1999/xlink" x="0px" y="0px"
	 viewBox="0 0 511.999 511.999" style="enable-background:new 0 0 511.999 511.999;" xml:space="preserve">
<polyline style="fill:#CCCCCC;" points="473.79,397.438 473.79,450.502 8.448,450.502 8.448,397.438 "/>
<g>
	<path style="fill:#F2F2F2;" d="M241.128,111.7v338.801c0-23.468-15.225-43.366-36.328-50.37
		c-5.259-1.745-10.889-2.691-16.745-2.691H8.45V58.639h179.603c5.856,0,11.486,0.946,16.745,2.703
		C225.902,68.345,241.128,88.243,241.128,111.7z"/>
	<path style="fill:#F2F2F2;" d="M473.792,58.639V397.44H294.189c-5.856,0-11.486,0.946-16.757,2.703
		c-21.103,7.016-36.306,26.903-36.306,50.36V111.7c0-23.446,15.202-43.344,36.306-50.36c5.27-1.757,10.901-2.703,16.757-2.703
		h179.603V58.639z"/>
</g>
<path style="fill:#E6E6E6;" d="M277.434,61.34v338.801c-21.103,7.016-36.306,26.903-36.306,50.36
	c0-23.468-15.225-43.366-36.328-50.37V61.34c21.103,7.004,36.328,26.903,36.328,50.36C241.128,88.254,256.331,68.356,277.434,61.34z
	"/>
<rect x="382.409" y="120.213" transform="matrix(-0.8944 0.4473 -0.4473 -0.8944 899.3543 305.0896)" style="fill:#F7B239;" width="62.5" height="277.015"/>
<rect x="384.622" y="129.594" transform="matrix(-0.8944 0.4473 -0.4473 -0.8944 868.0084 331.2526)" style="fill:#E09B2D;" width="20.551" height="277.015"/>
<path d="M511.108,366.27l-28.875-57.734V60.068c0-4.664-3.78-8.446-8.446-8.446H294.185c-22.594,0-42.37,12.254-53.062,30.458
	c-10.695-18.204-30.474-30.458-53.072-30.458H8.446C3.781,51.622,0,55.403,0,60.068v338.801c0,0.018,0.002,0.036,0.002,0.054v53.008
	c0,4.664,3.781,8.446,8.446,8.446h465.341c4.665,0,8.446-3.781,8.446-8.446v-53.066c0-0.015-0.002-0.028-0.002-0.044v-8.669
	l25.098-12.552c2.003-1.002,3.527-2.759,4.235-4.884C512.274,370.592,512.109,368.274,511.108,366.27z M16.892,68.514h171.157
	c24.608,0,44.628,20.014,44.628,44.616v296.507c-11.218-11.826-27.076-19.214-44.628-19.214H16.892V68.514z M16.894,407.315h171.155
	c21.719,0,39.854,15.595,43.815,36.171H16.894V407.315z M249.568,113.13c0-24.601,20.014-44.616,44.616-44.616h171.157v206.248
	L387.2,118.517c-1.002-2.003-2.759-3.526-4.884-4.234c-2.124-0.707-4.445-0.544-6.448,0.458l-55.896,27.955
	c-4.172,2.087-5.863,7.16-3.777,11.332l118.227,236.394H294.185c-17.546,0-33.399,7.386-44.616,19.21V113.13z M465.344,443.485
	H250.38c3.959-20.575,22.09-36.171,43.803-36.171h171.16v36.171H465.344z M451.434,386.671L335.083,154.027l40.788-20.399
	l116.352,232.645L451.434,386.671z"/>
<g>
	<path style="fill:#2197D8;" d="M91.468,130.84l17.397-17.397c3.298-3.298,3.298-8.646,0-11.944c-3.298-3.298-8.646-3.298-11.944,0
		l-17.397,17.397L62.126,101.5c-3.298-3.298-8.646-3.298-11.944,0c-3.298,3.298-3.298,8.646,0,11.944L67.58,130.84l-17.397,17.397
		c-3.298,3.298-3.298,8.646,0,11.944c3.298,3.298,8.646,3.298,11.944,0l17.397-17.397l17.397,17.397
		c1.649,1.649,3.811,2.474,5.972,2.474c2.161,0,4.323-0.824,5.972-2.474c3.298-3.298,3.298-8.646,0-11.944L91.468,130.84z"/>
	<path style="fill:#2197D8;" d="M342.07,295.327c-3.299-3.298-8.646-3.298-11.945,0l-17.396,17.397l-17.397-17.397
		c-3.299-3.298-8.646-3.298-11.945,0c-3.298,3.298-3.298,8.646,0,11.944l20.897,20.896v21.585c0,4.664,3.78,8.446,8.446,8.446
		s8.446-3.781,8.446-8.446v-21.585l20.896-20.896C345.369,303.973,345.369,298.625,342.07,295.327z"/>
	<path style="fill:#2197D8;" d="M198.099,162.656H151.36c-3.417,0-6.495-2.057-7.803-5.214c-1.307-3.156-0.584-6.788,1.831-9.204
		l32.322-32.322h-26.35c-4.664,0-8.446-3.781-8.446-8.446c0-4.664,3.781-8.446,8.446-8.446h46.739c3.417,0,6.495,2.057,7.803,5.214
		c1.307,3.156,0.584,6.788-1.831,9.204l-32.322,32.322h26.349c4.664,0,8.446,3.781,8.446,8.446S202.764,162.656,198.099,162.656z"/>
	<path style="fill:#2197D8;" d="M202.267,349.354L72.208,214.228c-2.39-2.482-6.049-3.265-9.243-1.976
		c-3.196,1.288-5.288,4.387-5.288,7.833v135.126c0,4.664,3.781,8.446,8.446,8.446H115.1c0.003,0,0.007,0,0.011,0s0.007,0,0.011,0
		h81.06c3.386,0,6.446-2.022,7.771-5.14C205.279,355.401,204.616,351.794,202.267,349.354z M74.569,315.562
		c15.588,3.316,27.888,15.615,31.204,31.202H74.569V315.562z M122.931,346.765c-3.689-24.92-23.441-44.67-48.362-48.36v-57.367
		l101.762,105.727H122.931z"/>
</g>
<g>
</g>
<g>
</g>
<g>
</g>
<g>
</g>
<g>
</g>
<g>
</g>
<g>
</g>
<g>
</g>
<g>
</g>
<g>
</g>
<g>
</g>
<g>
</g>
<g>
</g>
<g>
</g>
<g>
</g>
</svg>
