<?xml version="1.0" standalone="no"?>
<!DOCTYPE svg PUBLIC "-//W3C//DTD SVG 20010904//EN"
 "http://www.w3.org/TR/2001/REC-SVG-20010904/DTD/svg10.dtd">
<svg version="1.0" xmlns="http://www.w3.org/2000/svg"
 width="500.000000pt" height="500.000000pt" viewBox="0 0 500.000000 500.000000"
 preserveAspectRatio="xMidYMid meet">

<g transform="translate(0.000000,500.000000) scale(0.100000,-0.100000)"
fill="#000000" stroke="none">
<path d="M0 2500 l0 -2500 2500 0 2500 0 0 2500 0 2500 -2500 0 -2500 0 0
-2500z m2010 847 c0 -13 -85 -41 -99 -32 -5 2 -33 -4 -62 -14 -30 -11 -47 -20
-39 -21 12 0 11 -3 -3 -11 -9 -5 -22 -7 -29 -3 -6 4 -8 3 -5 -3 4 -6 -5 -15
-19 -22 -35 -16 -44 -13 -14 4 29 17 9 20 -22 4 -11 -6 -22 -8 -25 -6 -5 6
190 103 222 110 43 10 95 7 95 -6z m41 -5 c-7 -2 -18 1 -23 6 -8 8 -4 9 13 5
13 -4 18 -8 10 -11z m260 -36 c14 -12 37 -36 50 -54 13 -19 33 -45 45 -59 l21
-26 39 21 c37 20 131 57 203 81 19 6 47 11 63 11 16 0 38 5 50 11 93 50 236
14 297 -75 17 -24 38 -46 47 -50 23 -9 92 11 144 43 25 15 51 26 58 24 18 -7
15 -34 -5 -49 -29 -20 -9 -26 27 -7 24 12 35 13 38 5 2 -7 10 -12 18 -12 14 0
16 -13 18 -92 1 -32 3 -35 19 -26 10 5 21 7 25 4 3 -3 -1 -6 -9 -6 -12 -1 -11
-3 1 -13 22 -18 39 -52 32 -63 -12 -17 -99 -64 -165 -89 -34 -13 -57 -24 -51
-25 15 0 117 35 146 51 12 7 30 13 38 14 8 0 14 6 13 13 -2 6 2 12 8 12 6 0 9
-8 7 -17 -3 -17 -86 -65 -99 -57 -4 2 -29 -3 -55 -11 -27 -8 -65 -13 -84 -10
-20 3 -28 2 -18 -2 10 -5 -23 -8 -72 -8 -50 0 -90 3 -90 6 0 4 -9 9 -20 12
-11 3 -18 1 -14 -4 7 -12 -7 -11 -26 1 -8 5 -10 10 -5 10 6 1 -2 8 -18 16 -15
8 -33 12 -39 8 -7 -5 -8 -3 -3 6 6 10 4 12 -7 7 -16 -6 -68 40 -68 60 0 17
-55 1 -153 -46 -49 -23 -94 -42 -100 -44 -6 -1 -17 -7 -24 -14 -29 -27 -125
-53 -200 -55 -67 -1 -85 2 -129 25 -61 31 -117 92 -151 165 -13 28 -30 52 -37
52 -7 0 -46 -13 -86 -30 -81 -33 -115 -38 -107 -16 7 17 -16 12 -43 -8 -8 -7
-33 -20 -54 -30 -61 -27 -27 7 41 41 48 25 52 29 34 37 -12 5 -21 13 -21 18 0
5 -14 1 -31 -7 -48 -25 -45 -11 3 18 56 34 21 37 -38 3 -32 -18 -41 -20 -41
-8 0 8 20 23 44 34 25 11 42 22 39 25 -2 3 -31 -9 -62 -26 -32 -17 -59 -30
-60 -28 -5 5 11 23 36 40 13 9 20 17 14 17 -5 0 -19 -7 -31 -15 -12 -8 -28
-12 -37 -9 -9 3 -16 1 -16 -5 0 -6 -8 -11 -18 -11 -10 0 -24 -6 -32 -12 -12
-11 -12 -10 -1 4 6 9 41 35 77 58 35 23 64 44 64 45 0 2 -10 1 -22 -2 -15 -3
-9 4 17 20 22 14 51 34 65 45 40 31 102 55 111 41 4 -8 14 -6 33 6 16 11 52
19 94 21 l67 4 -48 -13 c-72 -21 -68 -27 19 -27 82 0 145 -20 173 -53 19 -24
34 -21 21 3 -6 11 -15 20 -21 20 -6 0 -23 9 -38 19 -15 11 -39 23 -52 26 -14
3 -26 13 -26 21 0 9 4 11 12 4 7 -5 16 -6 20 -2 5 4 5 1 0 -7 -6 -11 -3 -13
17 -8 22 6 62 -14 116 -59 2 -1 4 -8 5 -16 3 -15 46 -88 53 -88 2 0 3 6 2 13
-2 6 3 11 10 9 8 -1 11 2 7 8 -3 6 -11 7 -17 4 -7 -4 -8 -2 -4 4 10 16 -51 98
-91 123 -18 11 -33 25 -33 30 0 15 40 0 71 -25z m-551 -270 c0 -2 -7 -7 -16
-10 -8 -3 -12 -2 -9 4 6 10 25 14 25 6z m-193 -676 c226 -98 230 -457 6 -566
-51 -26 -69 -29 -148 -29 -104 1 -155 20 -220 83 -61 59 -89 131 -90 227 0 71
4 88 32 146 37 75 92 124 168 152 68 24 181 19 252 -13z m1253 -99 c63 -71
120 -130 125 -130 6 0 62 58 125 129 83 94 121 130 138 130 l22 0 0 -310 0
-310 -65 0 -65 0 0 167 0 168 -77 -78 -78 -77 -77 77 -78 78 0 -168 0 -167
-60 0 -60 0 0 310 c0 291 1 310 18 310 10 0 66 -55 132 -129z m1054 113 c16
-6 18 -15 13 -66 -3 -33 -8 -62 -10 -65 -3 -2 -14 0 -25 6 -29 15 -116 14
-155 -3 -152 -63 -129 -311 32 -345 42 -9 127 -1 151 14 8 5 12 -8 25 -86 l6
-37 -52 -12 c-215 -52 -395 88 -393 305 1 144 92 260 229 296 33 9 150 4 179
-7z m-1748 -89 c31 -53 60 -98 64 -100 5 -3 34 40 66 95 l59 100 74 0 c54 0
72 -3 68 -12 -3 -7 -50 -85 -106 -172 l-101 -159 0 -133 0 -134 -60 0 -60 0 0
139 0 139 -81 128 c-44 70 -91 144 -105 165 l-24 39 74 0 75 0 57 -95z"/>
<path d="M2906 3276 c4 -10 -3 -16 -23 -19 -27 -4 -27 -4 5 -6 17 0 32 4 32
10 0 6 7 3 16 -5 8 -9 20 -16 25 -16 6 0 9 -8 7 -17 -4 -18 78 -93 101 -93 12
0 -4 20 -57 76 -47 48 -31 43 25 -8 46 -43 46 -43 27 -10 -16 27 -71 71 -89
72 -3 0 -18 6 -35 15 -36 19 -41 19 -34 1z"/>
<path d="M2772 3266 c-29 -8 -56 -17 -60 -21 -4 -4 7 -4 23 0 17 4 55 13 85
20 30 7 44 13 30 13 -14 0 -49 -5 -78 -12z"/>
<path d="M2037 3243 c-9 -2 -15 -8 -12 -13 3 -5 -4 -11 -15 -15 -11 -4 -17
-11 -14 -17 4 -6 3 -8 -3 -5 -12 7 -79 -15 -96 -32 -10 -11 -5 -12 23 -6 19 4
42 12 50 18 8 7 7 2 -4 -10 -10 -13 -28 -25 -40 -29 -17 -6 -13 -9 24 -20 54
-16 60 -17 40 -4 -12 8 -12 10 5 10 14 0 16 3 7 8 -9 6 0 13 28 22 22 7 43 11
46 7 3 -3 -9 -10 -27 -16 -20 -5 -26 -10 -15 -10 20 -1 20 -1 0 -16 -17 -13
-15 -14 32 -13 29 0 57 -3 64 -7 8 -5 7 0 -2 14 -8 13 -24 22 -43 22 l-30 2
28 4 c15 2 25 8 22 13 -16 26 58 12 77 -15 5 -6 8 -6 8 2 0 7 -10 18 -22 24
-13 7 -26 16 -29 21 -4 6 -22 14 -40 19 -30 8 -28 8 16 5 40 -3 44 -2 20 4
-16 5 -43 12 -58 15 -15 3 -25 10 -22 15 3 6 5 9 3 9 -2 -1 -11 -3 -21 -6z
m23 -47 c0 -2 -11 -6 -25 -8 -13 -3 -22 -1 -19 3 5 9 44 13 44 5z"/>
<path d="M2088 3243 c7 -3 16 -2 19 1 4 3 -2 6 -13 5 -11 0 -14 -3 -6 -6z"/>
<path d="M2740 3230 c-18 -12 -2 -12 25 0 13 6 15 9 5 9 -8 0 -22 -4 -30 -9z"/>
<path d="M3094 3132 c2 -9 11 -19 22 -23 28 -11 94 -10 94 1 0 6 -24 10 -52
11 -36 0 -47 3 -33 8 18 7 17 8 -7 13 -19 4 -25 1 -24 -10z"/>
<path d="M2887 3099 c7 -7 15 -10 18 -7 3 3 -2 9 -12 12 -14 6 -15 5 -6 -5z"/>
<path d="M2035 3080 c3 -5 1 -10 -4 -10 -6 0 -11 -4 -11 -9 0 -4 22 -6 50 -3
32 3 55 0 65 -8 22 -18 19 4 -3 23 -20 19 -108 24 -97 7z"/>
<path d="M3091 3086 c2 -2 18 -6 34 -10 22 -5 26 -4 15 4 -14 9 -59 15 -49 6z"/>
<path d="M1954 3046 c-19 -15 -19 -15 1 -11 11 2 26 4 33 4 7 1 10 6 7 11 -8
14 -18 13 -41 -4z"/>
<path d="M2860 3043 c14 -3 32 -10 40 -16 13 -11 13 -10 1 6 -7 9 -25 16 -40
16 l-26 -2 25 -4z"/>
<path d="M2905 2930 c10 -11 20 -20 23 -20 3 0 -3 9 -13 20 -10 11 -20 20 -23
20 -3 0 3 -9 13 -20z"/>
<path d="M3079 2887 c4 -5 32 -7 62 -5 l54 3 -62 5 c-34 3 -58 1 -54 -3z"/>
<path d="M3208 2883 c6 -2 18 -2 25 0 6 3 1 5 -13 5 -14 0 -19 -2 -12 -5z"/>
<path d="M1344 2246 c-34 -15 -77 -66 -89 -104 -14 -48 -7 -122 17 -165 63
-116 253 -114 313 3 51 98 11 228 -82 266 -41 18 -119 17 -159 0z"/>
</g>
</svg>
