<?xml version="1.0" encoding="utf-8"?>
<!-- Generator: Adobe Illustrator 16.0.0, SVG Export Plug-In . SVG Version: 6.00 Build 0)  -->
<!DOCTYPE svg PUBLIC "-//W3C//DTD SVG 1.1//EN" "http://www.w3.org/Graphics/SVG/1.1/DTD/svg11.dtd">
<svg version="1.1" id="icons" xmlns="http://www.w3.org/2000/svg" xmlns:xlink="http://www.w3.org/1999/xlink" x="0px" y="0px"
	 width="64px" height="64px" viewBox="0 0 64 64" enable-background="new 0 0 64 64" xml:space="preserve">
<g>
	<g>
		<path fill="#5D9CEC" d="M47.53,12.971c1.439,2.88,2.479,6.16,3.02,9.721c-3.05-0.851-6.76-1.5-10.88-1.86
			c-0.36-4.12-1.01-7.83-1.86-10.88C41.37,10.491,44.65,11.531,47.53,12.971z"/>
		<path fill="#5D9CEC" d="M40,28.501c0,0.33,0,0.66-0.01,0.98h-4.98c-1.66,0-3.01,1.35-3.01,3.01c0-1.66-1.34-3.01-3-3.01h-4.99
			C24,29.161,24,28.831,24,28.501c0-2.67,0.11-5.24,0.33-7.67c2.43-0.22,5-0.33,7.67-0.33s5.24,0.11,7.67,0.33
			C39.89,23.261,40,25.831,40,28.501z"/>
		<path fill="#5D9CEC" d="M50.55,22.691c5.2,1.46,8.45,3.52,8.45,5.81c0,2.22-3.06,4.23-8,5.68v-1.689h-0.21
			c0.14-1.311,0.21-2.63,0.21-3.99C51,26.501,50.85,24.561,50.55,22.691z"/>
		<path fill="#5D9CEC" d="M13,34.181c-4.94-1.449-8-3.46-8-5.68c0-2.29,3.25-4.35,8.45-5.81c-0.3,1.869-0.45,3.81-0.45,5.81
			c0,1.35,0.07,2.69,0.21,3.99H13V34.181z"/>
		<path fill="#5D9CEC" d="M51,28.501c0,1.36-0.07,2.68-0.21,3.99h-2.78v-3.01h-8.02c0.01-0.32,0.01-0.65,0.01-0.98
			c0-2.67-0.11-5.24-0.33-7.67c4.12,0.36,7.83,1.01,10.88,1.86C50.85,24.561,51,26.501,51,28.501z"/>
		<path fill="#5D9CEC" d="M32,1.501c6.42,0,12.1,4.53,15.53,11.47c-2.88-1.439-6.16-2.479-9.721-3.02
			C36.35,4.751,34.29,1.501,32,1.501z"/>
		<path fill="#5D9CEC" d="M51,34.181c4.94-1.449,8-3.46,8-5.68c0,5.27-3.05,10.04-7.98,13.49H51V34.181z"/>
		<path fill="#5D9CEC" d="M5,28.501c0,2.22,3.06,4.23,8,5.68v7.811h-0.01C8.06,38.551,5,33.781,5,28.501z"/>
		<path fill="#5D9CEC" d="M37.81,9.951c0.851,3.05,1.5,6.76,1.86,10.88c-2.43-0.22-5-0.33-7.67-0.33s-5.24,0.11-7.67,0.33
			c0.36-4.12,1.01-7.83,1.86-10.88c1.869-0.3,3.81-0.45,5.81-0.45S35.94,9.651,37.81,9.951z"/>
		<path fill="#5D9CEC" d="M51.02,41.991c4.931-3.45,7.98-8.221,7.98-13.49c0,7.5-3.05,14.28-7.99,19.17H51v-5.68H51.02z"/>
		<path fill="#5D9CEC" d="M32,1.501c-2.29,0-4.35,3.25-5.81,8.45c-3.561,0.54-6.841,1.58-9.721,3.02
			C19.9,6.031,25.58,1.501,32,1.501z"/>
		<path fill="#5D9CEC" d="M5,28.501c0,5.28,3.06,10.05,7.99,13.49H13v5.689C8.06,42.791,5,36.001,5,28.501z"/>
		<path fill="#5D9CEC" d="M5,28.501c0-6.42,4.53-12.1,11.47-15.53c-1.439,2.88-2.479,6.16-3.02,9.721C8.25,24.151,5,26.211,5,28.501
			z"/>
		<path fill="#5D9CEC" d="M32,1.501c2.29,0,4.35,3.25,5.81,8.45C35.94,9.651,34,9.501,32,9.501s-3.94,0.15-5.81,0.45
			C27.65,4.751,29.71,1.501,32,1.501z"/>
		<path fill="#5D9CEC" d="M32,1.501c14.91,0,27,12.09,27,27c0-6.42-4.53-12.1-11.47-15.53C44.1,6.031,38.42,1.501,32,1.501z"/>
		<path fill="#5D9CEC" d="M5,28.501c0-14.91,12.09-27,27-27c-6.42,0-12.1,4.53-15.53,11.47C9.53,16.401,5,22.081,5,28.501z"/>
		<path fill="#5D9CEC" d="M47.53,12.971C54.47,16.401,59,22.081,59,28.501c0-2.29-3.25-4.35-8.45-5.81
			C50.01,19.131,48.97,15.851,47.53,12.971z"/>
		<path fill="#5D9CEC" d="M26.19,9.951c-0.851,3.05-1.5,6.76-1.86,10.88c-4.12,0.36-7.83,1.01-10.88,1.86
			c0.54-3.561,1.58-6.841,3.02-9.721C19.35,11.531,22.63,10.491,26.19,9.951z"/>
		<path fill="#5D9CEC" d="M16,29.481v3.01h-2.79c-0.14-1.3-0.21-2.641-0.21-3.99c0-2,0.15-3.94,0.45-5.81
			c3.05-0.851,6.76-1.5,10.88-1.86c-0.22,2.43-0.33,5-0.33,7.67c0,0.33,0,0.66,0.01,0.98H16z"/>
	</g>
	<g>
		<path fill="#4A89DC" d="M13.001,48.683c-0.254,0-0.509-0.097-0.704-0.289C6.946,43.095,4,36.029,4,28.499
			c0-15.439,12.561-28,28-28s28,12.561,28,28c0,7.523-2.942,14.584-8.285,19.881c-0.393,0.389-1.025,0.387-1.414-0.006
			s-0.387-1.025,0.006-1.414C55.268,42.041,58,35.484,58,28.499c0-14.337-11.663-26-26-26s-26,11.663-26,26
			c0,6.992,2.736,13.553,7.705,18.473c0.392,0.389,0.396,1.022,0.007,1.415C13.516,48.584,13.259,48.683,13.001,48.683z"/>
	</g>
	<g>
		<path fill="#4A89DC" d="M50.794,33.499c-0.034,0-0.069-0.002-0.104-0.005c-0.549-0.058-0.948-0.549-0.892-1.099
			C49.933,31.108,50,29.798,50,28.499c0-14.337-8.075-26-18-26s-18,11.663-18,26c0,1.302,0.067,2.608,0.2,3.885
			c0.058,0.549-0.341,1.041-0.891,1.098c-0.558,0.063-1.041-0.341-1.098-0.891C12.071,31.246,12,29.87,12,28.499
			c0-15.439,8.972-28,20-28s20,12.561,20,28c0,1.367-0.071,2.748-0.212,4.104C51.734,33.116,51.3,33.499,50.794,33.499z"/>
	</g>
	<g>
		<path fill="#4A89DC" d="M39.994,30.483c-0.004,0-0.008,0-0.012,0c-0.553-0.007-0.995-0.46-0.988-1.012
			C38.998,29.149,39,28.825,39,28.499c0-15.322-3.689-26-7-26s-7,10.678-7,26c0,0.326,0.002,0.65,0.006,0.973
			c0.007,0.552-0.436,1.005-0.988,1.012c-0.004,0-0.008,0-0.012,0c-0.547,0-0.993-0.439-1-0.988C23.002,29.165,23,28.833,23,28.499
			c0-13.573,3.154-28,9-28s9,14.427,9,28c0,0.334-0.002,0.666-0.006,0.996C40.987,30.044,40.541,30.483,39.994,30.483z"/>
	</g>
	<g>
		<path fill="#4A89DC" d="M12.992,42.993c-0.197,0-0.396-0.059-0.571-0.18C6.99,39.025,4,33.942,4,28.499c0-11.028,12.561-20,28-20
			s28,8.972,28,20c0,5.438-2.987,10.519-8.411,14.308c-0.45,0.318-1.076,0.208-1.392-0.247c-0.316-0.452-0.206-1.076,0.247-1.392
			C55.316,37.764,58,33.265,58,28.499c0-9.925-11.663-18-26-18s-26,8.075-26,18c0,4.77,2.687,9.271,7.565,12.674
			c0.453,0.316,0.563,0.939,0.248,1.393C13.619,42.844,13.309,42.993,12.992,42.993z"/>
	</g>
	<g>
		<path fill="#4A89DC" d="M51,35.183c-0.433,0-0.832-0.282-0.96-0.719c-0.155-0.529,0.148-1.085,0.679-1.241
			C56.087,31.647,58,29.75,58,28.499c0-3.311-10.678-7-26-7s-26,3.689-26,7c0,1.25,1.912,3.147,7.277,4.724
			c0.529,0.155,0.833,0.711,0.677,1.241c-0.155,0.529-0.703,0.838-1.241,0.677C7.013,33.467,4,31.17,4,28.499c0-5.846,14.427-9,28-9
			s28,3.154,28,9c0,2.673-3.015,4.97-8.719,6.644C51.188,35.17,51.093,35.183,51,35.183z"/>
	</g>
	<path fill="#656D78" d="M52.001,62.501c0,0.55-0.45,1-1,1H12.999c-0.55,0-1-0.45-1-1v-29.01c0-0.55,0.45-1,1-1h38.002
		c0.55,0,1,0.45,1,1V62.501z"/>
	<g>
		<path fill="#E6E9ED" d="M35,60.501c-1.65,0-3,1.34-3,3v-31.01c0-1.66,1.35-3.01,3.01-3.01h5.981h8.02v3.01v28.01H35z"/>
		<path fill="#F5F7FA" d="M29,29.481c1.66,0,3,1.35,3,3.01v31.01c0-1.66-1.34-3-3-3H14.999v-28.01v-3.01h8.01H29z"/>
		<path fill="#CCD1D9" d="M28,35.562h-9.001c-0.553,0-1-0.447-1-1s0.447-1,1-1H28c0.553,0,1,0.447,1,1S28.553,35.562,28,35.562z"/>
		<path fill="#CCD1D9" d="M28,38.562h-9.001c-0.553,0-1-0.447-1-1s0.447-1,1-1H28c0.553,0,1,0.447,1,1S28.553,38.562,28,38.562z"/>
		<path fill="#CCD1D9" d="M28,41.562h-9.001c-0.553,0-1-0.447-1-1s0.447-1,1-1H28c0.553,0,1,0.447,1,1S28.553,41.562,28,41.562z"/>
		<path fill="#CCD1D9" d="M28,44.562h-9.001c-0.553,0-1-0.447-1-1s0.447-1,1-1H28c0.553,0,1,0.447,1,1S28.553,44.562,28,44.562z"/>
		<path fill="#CCD1D9" d="M28,47.562h-9.001c-0.553,0-1-0.447-1-1s0.447-1,1-1H28c0.553,0,1,0.447,1,1S28.553,47.562,28,47.562z"/>
		<path fill="#CCD1D9" d="M28,50.499h-9.001c-0.553,0-1-0.447-1-1s0.447-1,1-1H28c0.553,0,1,0.447,1,1S28.553,50.499,28,50.499z"/>
		<path fill="#CCD1D9" d="M28,53.499h-9.001c-0.553,0-1-0.447-1-1s0.447-1,1-1H28c0.553,0,1,0.447,1,1S28.553,53.499,28,53.499z"/>
		<path fill="#CCD1D9" d="M28,56.499h-9.001c-0.553,0-1-0.447-1-1s0.447-1,1-1H28c0.553,0,1,0.447,1,1S28.553,56.499,28,56.499z"/>
		<path fill="#CCD1D9" d="M45.001,35.562H36c-0.553,0-1-0.447-1-1s0.447-1,1-1h9.001c0.553,0,1,0.447,1,1
			S45.554,35.562,45.001,35.562z"/>
		<path fill="#CCD1D9" d="M45.001,38.562H36c-0.553,0-1-0.447-1-1s0.447-1,1-1h9.001c0.553,0,1,0.447,1,1
			S45.554,38.562,45.001,38.562z"/>
		<path fill="#CCD1D9" d="M45.001,41.562H36c-0.553,0-1-0.447-1-1s0.447-1,1-1h9.001c0.553,0,1,0.447,1,1
			S45.554,41.562,45.001,41.562z"/>
		<path fill="#CCD1D9" d="M45.001,44.562H36c-0.553,0-1-0.447-1-1s0.447-1,1-1h9.001c0.553,0,1,0.447,1,1
			S45.554,44.562,45.001,44.562z"/>
		<path fill="#CCD1D9" d="M45.001,47.562H36c-0.553,0-1-0.447-1-1s0.447-1,1-1h9.001c0.553,0,1,0.447,1,1
			S45.554,47.562,45.001,47.562z"/>
		<path fill="#CCD1D9" d="M45.001,50.562H36c-0.553,0-1-0.447-1-1s0.447-1,1-1h9.001c0.553,0,1,0.447,1,1
			S45.554,50.562,45.001,50.562z"/>
		<path fill="#CCD1D9" d="M45.001,53.562H36c-0.553,0-1-0.447-1-1s0.447-1,1-1h9.001c0.553,0,1,0.447,1,1
			S45.554,53.562,45.001,53.562z"/>
		<path fill="#CCD1D9" d="M45.001,56.562H36c-0.553,0-1-0.447-1-1s0.447-1,1-1h9.001c0.553,0,1,0.447,1,1
			S45.554,56.562,45.001,56.562z"/>
	</g>
</g>
</svg>
