<?xml version="1.0" encoding="utf-8"?>
<!-- Generator: Adobe Illustrator 16.0.0, SVG Export Plug-In . SVG Version: 6.00 Build 0)  -->
<!DOCTYPE svg PUBLIC "-//W3C//DTD SVG 1.1//EN" "http://www.w3.org/Graphics/SVG/1.1/DTD/svg11.dtd">
<svg version="1.1" id="Layer_1" xmlns="http://www.w3.org/2000/svg" xmlns:xlink="http://www.w3.org/1999/xlink" x="0px" y="0px"
	 width="128px" height="128px" viewBox="0 0 128 128" enable-background="new 0 0 128 128" xml:space="preserve">
<g>
	<g>
		<g>
			<g>
				<path fill="#282D33" d="M99.568,126.827H3.6c-1.984,0-3.6-1.623-3.6-3.618v-39.89c0-1.993,1.615-3.614,3.6-3.614h95.969
					c1.985,0,3.601,1.621,3.601,3.614v39.89C103.169,125.204,101.554,126.827,99.568,126.827z M4.001,122.826h95.168v-39.12H4.001
					V122.826z"/>
			</g>
			<g>
				<g>
					<g>
						<rect x="10.076" y="90.699" fill="#282D33" width="7.521" height="4.001"/>
					</g>
					<g>
						<rect x="22.658" y="90.699" fill="#282D33" width="7.521" height="4.001"/>
					</g>
					<g>
						<rect x="35.241" y="90.699" fill="#282D33" width="7.521" height="4.001"/>
					</g>
					<g>
						<rect x="47.824" y="90.699" fill="#282D33" width="7.521" height="4.001"/>
					</g>
					<g>
						<rect x="60.409" y="90.699" fill="#282D33" width="7.519" height="4.001"/>
					</g>
					<g>
						<rect x="72.994" y="90.699" fill="#282D33" width="7.518" height="4.001"/>
					</g>
					<g>
						<rect x="85.573" y="90.699" fill="#282D33" width="7.52" height="4.001"/>
					</g>
				</g>
				<g>
					<g>
						<rect x="10.076" y="101.267" fill="#282D33" width="7.521" height="4.001"/>
					</g>
					<g>
						<rect x="22.658" y="101.267" fill="#282D33" width="7.521" height="4.001"/>
					</g>
					<g>
						<rect x="35.241" y="101.267" fill="#282D33" width="7.521" height="4.001"/>
					</g>
					<g>
						<rect x="47.824" y="101.267" fill="#282D33" width="7.521" height="4.001"/>
					</g>
					<g>
						<rect x="60.409" y="101.267" fill="#282D33" width="7.519" height="4.001"/>
					</g>
					<g>
						<rect x="72.994" y="101.267" fill="#282D33" width="7.518" height="4.001"/>
					</g>
					<g>
						<rect x="85.573" y="101.267" fill="#282D33" width="7.52" height="4.001"/>
					</g>
				</g>
				<g>
					<g>
						<rect x="10.076" y="111.826" fill="#282D33" width="7.521" height="4.001"/>
					</g>
					<g>
						<rect x="22.658" y="111.826" fill="#282D33" width="7.521" height="4.001"/>
					</g>
					<g>
						<rect x="35.241" y="111.826" fill="#282D33" width="45.388" height="4.001"/>
					</g>
					<g>
						<rect x="85.573" y="111.826" fill="#282D33" width="7.52" height="4.001"/>
					</g>
				</g>
			</g>
		</g>
	</g>
	<g>
		<path fill="#282D33" d="M22.531,69.185c-1.129,0-2.262-0.116-3.365-0.347l0.817-3.917c0.835,0.175,1.693,0.263,2.549,0.263
			c0.005,0,0.009,0,0.013,0h1.008v4.001h-1.006C22.541,69.185,22.536,69.185,22.531,69.185z M39.557,69.185h-4.001v-4.001h4.001
			V69.185z M31.555,69.185h-4.001v-4.001h4.001V69.185z M14.894,67.308c-1.34-0.701-2.582-1.586-3.691-2.629l2.741-2.915
			c0.844,0.793,1.787,1.465,2.805,1.997L14.894,67.308z M8.353,61.162c-0.788-1.296-1.396-2.693-1.81-4.151l3.85-1.089
			c0.314,1.111,0.778,2.174,1.379,3.162L8.353,61.162z M5.906,52.542l-0.001-0.149c0-1.471,0.189-2.933,0.563-4.343l3.868,1.024
			c-0.285,1.076-0.43,2.193-0.43,3.319l0.001,0.103L5.906,52.542z M11.66,45.889L8.206,43.87c0.765-1.308,1.703-2.507,2.79-3.564
			l2.79,2.868C12.958,43.979,12.242,44.894,11.66,45.889z M16.558,41.127l-1.915-3.513c1.337-0.729,2.766-1.268,4.246-1.604
			l0.884,3.902C18.652,40.166,17.57,40.575,16.558,41.127z M27.305,39.604h-4.001v-4.001h4.001V39.604z"/>
	</g>
	<g>
		<path fill="#282D33" d="M113.129,93.946h-2.778v-4.001h2.778c0.349,0,0.692-0.017,1.032-0.049l0.377,3.983
			C114.075,93.924,113.604,93.946,113.129,93.946z M106.35,93.946h-4.001v-4.001h4.001V93.946z M119.002,92.733l-1.59-3.671
			c1.033-0.448,1.99-1.054,2.844-1.8l2.635,3.01C121.726,91.293,120.418,92.12,119.002,92.733z M125.847,86.753l-3.421-2.075
			c0.587-0.969,1.021-2.017,1.288-3.117l3.888,0.945C127.237,84.005,126.646,85.434,125.847,86.753z M124.008,78.19
			c-0.072-1.134-0.316-2.243-0.723-3.297l3.731-1.442c0.555,1.436,0.885,2.944,0.983,4.485L124.008,78.19z M121.601,71.97
			c-0.708-0.885-1.543-1.65-2.484-2.278l2.218-3.329c1.284,0.855,2.424,1.9,3.391,3.106L121.601,71.97z M116.064,68.285
			c-0.952-0.268-1.938-0.403-2.936-0.403h-0.478V63.88h0.478c1.363,0,2.717,0.186,4.02,0.554L116.064,68.285z M108.65,67.882h-4.001
			V63.88h4.001V67.882z M100.648,67.882h-4.001V63.88h4.001V67.882z"/>
	</g>
	<g>
		<g>
			<g>
				<g>
					<g>
						<path fill="#282D33" d="M69.085,74.346C69.084,74.346,69.086,74.346,69.085,74.346c-0.394,0-0.789-0.008-1.186-0.02
							c-19.972-0.655-35.692-17.59-35.043-37.751c0.647-20.25,17.199-36.042,37.395-35.382c19.971,0.655,35.692,17.59,35.045,37.751
							C104.657,58.794,88.75,74.346,69.085,74.346z M69.059,5.174c-17.492,0-31.638,13.849-32.203,31.529
							C36.277,54.661,50.262,69.744,68.03,70.327c0.353,0.012,0.704,0.018,1.055,0.018c17.493,0,31.644-13.85,32.212-31.529
							c0.577-17.958-13.409-33.042-31.178-33.624C69.765,5.18,69.411,5.174,69.059,5.174z"/>
					</g>
				</g>
			</g>
		</g>
	</g>
	<g>
		<g>
			<g>
				<path fill="#282D33" d="M70.168,64.519l-4.597-11.864l-0.959-7.439l-3.745-0.322l-2.612-5.119l3.563-8.772l4.272,0.318
					l-6.262-4.654l5.711-3.013l-1.638-2.801l7.104-5.966l5.375,2.169c2.592-0.868,11.709-3.955,14.927-5.484l1.717,3.614
					c-3.972,1.887-15.588,5.737-16.081,5.9l-0.696,0.23l-4.509-1.82l-2.679,2.25l2.045,3.496l-3.792,2l5.671,4.216l-1.898,4.246
					l-6.657-0.495l-1.776,4.377l0.771,1.513l4.746,0.408l1.309,10.157l1.031,2.658l4.827-10.356l-0.725-0.05l-0.541-7.367
					l5.021-0.057l4.126-4.861l3.22,6.454l4.784-2.961l2.204,4.908l7.247-11.922l3.419,2.079L92.891,48.609l-3.449-7.681
					l-4.629,2.865l-2.471-4.952l-1.281,1.51l0.361,0.025L70.168,64.519z"/>
			</g>
			<g>
				<path fill="#282D33" d="M41.512,41.961l-7.075-0.247l0.14-3.999l4.54,0.159c-1.105-5.507-0.986-5.662-0.417-6.401l1.479-0.781
					l3.673-0.188l5.926-4.905l-1.117-1.497c-1.625,1.792-2.092,2.041-3.019,1.943l-1.547-1.021l-0.231-1.269l2.104-14.109
					l3.957,0.59l-1.405,9.429l1.875,0.072l3.728,4.994l-0.327,2.737l-7.901,6.541l-1.173,0.458l-2.149,0.11
					c0.251,1.38,0.624,3.286,0.972,4.984L41.512,41.961z"/>
			</g>
			<g>
				<path fill="#282D33" d="M52.138,69.455l-7.933-9.42l0.404-7.897l-2.897-6.345l3.304-8.822l13.21,9.742L52.138,69.455z
					 M48.281,58.664l1.976,2.346l3.398-12.698l-6.75-4.978l-0.864,2.306l2.36,5.171c0.185,0.408,0.257,0.843,0.215,1.269
					L48.281,58.664z"/>
			</g>
			<g>
				<path fill="#282D33" d="M57.052,18.359l-5.17-12.243l1.761-0.81c5.698-2.622,9.564-3.181,11.362-3.28l2.75-0.152l-2.804,10.584
					L57.052,18.359z M57.092,8.167l1.658,3.928l2.69-2.009l0.963-3.637C61.033,6.758,59.253,7.282,57.092,8.167z"/>
			</g>
		</g>
	</g>
</g>
</svg>
